<svg width="1120" height="145" viewBox="0 0 1120 145" fill="none" xmlns="http://www.w3.org/2000/svg">
<path id="gdzie-wyrzucic.pl" d="M73.4453 32.9375V40.3203L59.1719 42.0078C60.4844 43.6484 61.6562 45.8047 62.6875 48.4766C63.7188 51.1016 64.2344 54.0781 64.2344 57.4062C64.2344 64.9531 61.6562 70.9766 56.5 75.4766C51.3438 79.9766 44.2656 82.2266 35.2656 82.2266C32.9688 82.2266 30.8125 82.0391 28.7969 81.6641C23.8281 84.2891 21.3438 87.5938 21.3438 91.5781C21.3438 93.6875 22.2109 95.2578 23.9453 96.2891C25.6797 97.2734 28.6562 97.7656 32.875 97.7656H46.5156C54.8594 97.7656 61.2578 99.5234 65.7109 103.039C70.2109 106.555 72.4609 111.664 72.4609 118.367C72.4609 126.898 69.0391 133.391 62.1953 137.844C55.3516 142.344 45.3672 144.594 32.2422 144.594C22.1641 144.594 14.3828 142.719 8.89844 138.969C3.46094 135.219 0.742188 129.922 0.742188 123.078C0.742188 118.391 2.24219 114.336 5.24219 110.914C8.24219 107.492 12.4609 105.172 17.8984 103.953C15.9297 103.062 14.2656 101.68 12.9062 99.8047C11.5938 97.9297 10.9375 95.75 10.9375 93.2656C10.9375 90.4531 11.6875 87.9922 13.1875 85.8828C14.6875 83.7734 17.0547 81.7344 20.2891 79.7656C16.3047 78.125 13.0469 75.3359 10.5156 71.3984C8.03125 67.4609 6.78906 62.9609 6.78906 57.8984C6.78906 49.4609 9.32031 42.9688 14.3828 38.4219C19.4453 33.8281 26.6172 31.5312 35.8984 31.5312C39.9297 31.5312 43.5625 32 46.7969 32.9375H73.4453ZM11.9922 122.938C11.9922 127.109 13.75 130.273 17.2656 132.43C20.7812 134.586 25.8203 135.664 32.3828 135.664C42.1797 135.664 49.4219 134.188 54.1094 131.234C58.8438 128.328 61.2109 124.367 61.2109 119.352C61.2109 115.18 59.9219 112.273 57.3438 110.633C54.7656 109.039 49.9141 108.242 42.7891 108.242H28.7969C23.5 108.242 19.375 109.508 16.4219 112.039C13.4688 114.57 11.9922 118.203 11.9922 122.938ZM18.3203 57.6172C18.3203 63.0078 19.8438 67.0859 22.8906 69.8516C25.9375 72.6172 30.1797 74 35.6172 74C47.0078 74 52.7031 68.4688 52.7031 57.4062C52.7031 45.8281 46.9375 40.0391 35.4062 40.0391C29.9219 40.0391 25.7031 41.5156 22.75 44.4688C19.7969 47.4219 18.3203 51.8047 18.3203 57.6172ZM141.719 99.6641H141.086C135.695 107.492 127.633 111.406 116.898 111.406C106.82 111.406 98.9688 107.961 93.3438 101.07C87.7656 94.1797 84.9766 84.3828 84.9766 71.6797C84.9766 58.9766 87.7891 49.1094 93.4141 42.0781C99.0391 35.0469 106.867 31.5312 116.898 31.5312C127.352 31.5312 135.367 35.3281 140.945 42.9219H141.859L141.367 37.3672L141.086 31.9531V0.59375H152.758V110H143.266L141.719 99.6641ZM118.375 101.633C126.344 101.633 132.109 99.4766 135.672 95.1641C139.281 90.8047 141.086 83.7969 141.086 74.1406V71.6797C141.086 60.7578 139.258 52.9766 135.602 48.3359C131.992 43.6484 126.203 41.3047 118.234 41.3047C111.391 41.3047 106.141 43.9766 102.484 49.3203C98.875 54.6172 97.0703 62.1172 97.0703 71.8203C97.0703 81.6641 98.875 89.0938 102.484 94.1094C106.094 99.125 111.391 101.633 118.375 101.633ZM226.867 110H170.969V102.055L213.016 42.0078H173.57V32.9375H225.812V42.0078L184.328 100.93H226.867V110ZM256.609 110H244.938V32.9375H256.609V110ZM243.953 12.0547C243.953 9.38281 244.609 7.4375 245.922 6.21875C247.234 4.95312 248.875 4.32031 250.844 4.32031C252.719 4.32031 254.336 4.95312 255.695 6.21875C257.055 7.48438 257.734 9.42969 257.734 12.0547C257.734 14.6797 257.055 16.6484 255.695 17.9609C254.336 19.2266 252.719 19.8594 250.844 19.8594C248.875 19.8594 247.234 19.2266 245.922 17.9609C244.609 16.6484 243.953 14.6797 243.953 12.0547ZM313.914 111.406C302.523 111.406 293.523 107.938 286.914 101C280.352 94.0625 277.07 84.4297 277.07 72.1016C277.07 59.6797 280.117 49.8125 286.211 42.5C292.352 35.1875 300.578 31.5312 310.891 31.5312C320.547 31.5312 328.188 34.7188 333.812 41.0938C339.438 47.4219 342.25 55.7891 342.25 66.1953V73.5781H289.164C289.398 82.625 291.672 89.4922 295.984 94.1797C300.344 98.8672 306.461 101.211 314.336 101.211C322.633 101.211 330.836 99.4766 338.945 96.0078V106.414C334.82 108.195 330.906 109.461 327.203 110.211C323.547 111.008 319.117 111.406 313.914 111.406ZM310.75 41.3047C304.562 41.3047 299.617 43.3203 295.914 47.3516C292.258 51.3828 290.102 56.9609 289.445 64.0859H329.734C329.734 56.7266 328.094 51.1016 324.812 47.2109C321.531 43.2734 316.844 41.3047 310.75 41.3047ZM355.75 76.7422V66.0547H390.273V76.7422H355.75ZM471.555 110L457.422 64.7891C456.531 62.0234 454.867 55.7422 452.43 45.9453H451.867C449.992 54.1484 448.352 60.4766 446.945 64.9297L432.391 110H418.891L397.867 32.9375H410.102C415.07 52.2969 418.844 67.0391 421.422 77.1641C424.047 87.2891 425.547 94.1094 425.922 97.625H426.484C427 94.9531 427.82 91.5078 428.945 87.2891C430.117 83.0234 431.125 79.6484 431.969 77.1641L446.102 32.9375H458.758L472.539 77.1641C475.164 85.2266 476.945 92 477.883 97.4844H478.445C478.633 95.7969 479.125 93.1953 479.922 89.6797C480.766 86.1641 485.664 67.25 494.617 32.9375H506.711L485.406 110H471.555ZM508.469 32.9375H520.984L537.859 76.8828C541.562 86.9141 543.859 94.1562 544.75 98.6094H545.312C545.922 96.2188 547.188 92.1406 549.109 86.375C551.078 80.5625 557.453 62.75 568.234 32.9375H580.75L547.633 120.688C544.352 129.359 540.508 135.5 536.102 139.109C531.742 142.766 526.375 144.594 520 144.594C516.438 144.594 512.922 144.195 509.453 143.398V134.047C512.031 134.609 514.914 134.891 518.102 134.891C526.117 134.891 531.836 130.391 535.258 121.391L539.547 110.422L508.469 32.9375ZM628.422 31.5312C631.844 31.5312 634.914 31.8125 637.633 32.375L636.016 43.2031C632.828 42.5 630.016 42.1484 627.578 42.1484C621.344 42.1484 616 44.6797 611.547 49.7422C607.141 54.8047 604.938 61.1094 604.938 68.6562V110H593.266V32.9375H602.898L604.234 47.2109H604.797C607.656 42.1953 611.102 38.3281 615.133 35.6094C619.164 32.8906 623.594 31.5312 628.422 31.5312ZM701.336 110H645.438V102.055L687.484 42.0078H648.039V32.9375H700.281V42.0078L658.797 100.93H701.336V110ZM730.375 32.9375V82.9297C730.375 89.2109 731.805 93.8984 734.664 96.9922C737.523 100.086 742 101.633 748.094 101.633C756.156 101.633 762.039 99.4297 765.742 95.0234C769.492 90.6172 771.367 83.4219 771.367 73.4375V32.9375H783.039V110H773.406L771.719 99.6641H771.086C768.695 103.461 765.367 106.367 761.102 108.383C756.883 110.398 752.055 111.406 746.617 111.406C737.242 111.406 730.211 109.18 725.523 104.727C720.883 100.273 718.562 93.1484 718.562 83.3516V32.9375H730.375ZM838.656 111.406C827.5 111.406 818.852 107.984 812.711 101.141C806.617 94.25 803.57 84.5234 803.57 71.9609C803.57 59.0703 806.664 49.1094 812.852 42.0781C819.086 35.0469 827.945 31.5312 839.43 31.5312C843.133 31.5312 846.836 31.9297 850.539 32.7266C854.242 33.5234 857.148 34.4609 859.258 35.5391L855.672 45.4531C853.094 44.4219 850.281 43.5781 847.234 42.9219C844.188 42.2188 841.492 41.8672 839.148 41.8672C823.492 41.8672 815.664 51.8516 815.664 71.8203C815.664 81.2891 817.562 88.5547 821.359 93.6172C825.203 98.6797 830.875 101.211 838.375 101.211C844.797 101.211 851.383 99.8281 858.133 97.0625V107.398C852.977 110.07 846.484 111.406 838.656 111.406ZM888.156 110H876.484V32.9375H888.156V110ZM875.5 12.0547C875.5 9.38281 876.156 7.4375 877.469 6.21875C878.781 4.95312 880.422 4.32031 882.391 4.32031C884.266 4.32031 885.883 4.95312 887.242 6.21875C888.602 7.48438 889.281 9.42969 889.281 12.0547C889.281 14.6797 888.602 16.6484 887.242 17.9609C885.883 19.2266 884.266 19.8594 882.391 19.8594C880.422 19.8594 878.781 19.2266 877.469 17.9609C876.156 16.6484 875.5 14.6797 875.5 12.0547ZM943.703 111.406C932.547 111.406 923.898 107.984 917.758 101.141C911.664 94.25 908.617 84.5234 908.617 71.9609C908.617 59.0703 911.711 49.1094 917.898 42.0781C924.133 35.0469 932.992 31.5312 944.477 31.5312C948.18 31.5312 951.883 31.9297 955.586 32.7266C959.289 33.5234 962.195 34.4609 964.305 35.5391L960.719 45.4531C958.141 44.4219 955.328 43.5781 952.281 42.9219C949.234 42.2188 946.539 41.8672 944.195 41.8672C928.539 41.8672 920.711 51.8516 920.711 71.8203C920.711 81.2891 922.609 88.5547 926.406 93.6172C930.25 98.6797 935.922 101.211 943.422 101.211C949.844 101.211 956.43 99.8281 963.18 97.0625V107.398C958.023 110.07 951.531 111.406 943.703 111.406ZM979.844 102.547C979.844 99.4062 980.547 97.0391 981.953 95.4453C983.406 93.8047 985.469 92.9844 988.141 92.9844C990.859 92.9844 992.969 93.8047 994.469 95.4453C996.016 97.0391 996.789 99.4062 996.789 102.547C996.789 105.594 996.016 107.938 994.469 109.578C992.922 111.219 990.812 112.039 988.141 112.039C985.75 112.039 983.758 111.312 982.164 109.859C980.617 108.359 979.844 105.922 979.844 102.547ZM1055.78 111.406C1050.77 111.406 1046.17 110.492 1042 108.664C1037.88 106.789 1034.41 103.93 1031.59 100.086H1030.75C1031.31 104.586 1031.59 108.852 1031.59 112.883V144.594H1019.92V32.9375H1029.41L1031.03 43.4844H1031.59C1034.59 39.2656 1038.09 36.2188 1042.07 34.3438C1046.05 32.4688 1050.62 31.5312 1055.78 31.5312C1066 31.5312 1073.88 35.0234 1079.41 42.0078C1084.98 48.9922 1087.77 58.7891 1087.77 71.3984C1087.77 84.0547 1084.94 93.8984 1079.27 100.93C1073.64 107.914 1065.81 111.406 1055.78 111.406ZM1054.09 41.4453C1046.22 41.4453 1040.52 43.625 1037.01 47.9844C1033.49 52.3438 1031.69 59.2812 1031.59 68.7969V71.3984C1031.59 82.2266 1033.4 89.9844 1037.01 94.6719C1040.62 99.3125 1046.41 101.633 1054.38 101.633C1061.03 101.633 1066.23 98.9375 1069.98 93.5469C1073.78 88.1562 1075.68 80.7266 1075.68 71.2578C1075.68 61.6484 1073.78 54.2891 1069.98 49.1797C1066.23 44.0234 1060.94 41.4453 1054.09 41.4453ZM1119.91 110H1108.23V0.59375H1119.91V110Z" fill="#333333"/>
</svg>
