<svg width="135" height="19" viewBox="0 0 135 19" fill="none" xmlns="http://www.w3.org/2000/svg">
<path d="M16 17.7102C15.7613 17.8056 15.2759 17.9619 14.5793 18C13.9374 16.3033 13.1546 15.6169 13.1155 15.5826C10.6654 18.1487 6.29352 18.1182 3.51073 15.6818C-1.94916 10.908 0.473547 3.48426 0.919732 3.00002C4.02737 7.23997 9.272 4.72345 12.5205 7.68609C14.0704 9.10068 15.0607 11.3617 14.3679 13.5275C14.3444 13.5046 14.317 13.4855 14.2935 13.4627L14.1566 13.3483L14.0196 13.2377C13.9295 13.1652 13.8317 13.0966 13.7378 13.0242C13.546 12.8869 13.3464 12.7534 13.1429 12.6352C12.9393 12.5132 12.728 12.3988 12.5127 12.2997C12.2974 12.1968 12.0783 12.1053 11.8552 12.0252C11.409 11.8612 10.9511 11.743 10.4971 11.6515C9.58511 11.4723 8.68491 11.4075 7.8082 11.2931C7.36984 11.2359 6.9354 11.1673 6.50878 11.072C6.29352 11.0224 6.08217 10.969 5.87082 10.9118C5.65947 10.8508 5.45203 10.7822 5.24851 10.7097C4.83755 10.5572 4.43833 10.3818 4.05868 10.1683C3.67903 9.95477 3.31895 9.70693 2.99801 9.41334C2.67707 9.12355 2.39136 8.78802 2.16827 8.41817C2.05476 8.23133 1.95692 8.04069 1.87472 7.8386C1.79253 7.63652 1.72599 7.43062 1.6712 7.22091C1.66729 7.21328 1.65946 7.20566 1.64772 7.20566C1.63598 7.20947 1.62815 7.2171 1.63206 7.22854C1.6712 7.44587 1.72208 7.6594 1.79645 7.86911C1.8669 8.07882 1.953 8.28471 2.05476 8.47917C2.2622 8.87571 2.53226 9.23794 2.84537 9.56204C3.15848 9.88614 3.51856 10.1721 3.89821 10.4199C4.08999 10.542 4.28569 10.6602 4.4853 10.7669C4.68491 10.8737 4.89234 10.9728 5.09978 11.0681C5.30722 11.1597 5.51857 11.2473 5.73383 11.3274C5.9491 11.4075 6.16436 11.4799 6.38354 11.5448C6.8219 11.6744 7.26808 11.7812 7.71035 11.8727C8.59881 12.0557 9.48335 12.1853 10.317 12.4141C10.7319 12.5285 11.135 12.6658 11.5186 12.8373C11.7104 12.925 11.8943 13.0204 12.0744 13.1195C12.2544 13.2224 12.4305 13.333 12.5988 13.4512C12.771 13.5694 12.9315 13.699 13.092 13.8287C13.1702 13.8973 13.2485 13.9621 13.3268 14.0346L13.4403 14.1413L13.5538 14.2519C13.6008 14.2977 13.6477 14.3434 13.6947 14.393C13.7612 14.4616 13.8278 14.5303 13.8904 14.5989C14.0665 14.7895 14.2309 14.9878 14.3914 15.1899C14.9119 15.8495 15.3699 16.5702 15.7847 17.3137C15.8513 17.4357 15.9256 17.573 16 17.7102Z" fill="black"/>
<path d="M26.5014 18.906C25.9734 18.906 25.4814 18.858 25.0254 18.762C24.5814 18.666 24.1974 18.522 23.8734 18.33C23.5494 18.138 23.2914 17.898 23.0994 17.61C22.9194 17.322 22.8294 16.986 22.8294 16.602C22.8294 16.23 22.9374 15.882 23.1534 15.558C23.3694 15.246 23.6814 14.964 24.0894 14.712V14.64C23.8614 14.496 23.6694 14.304 23.5134 14.064C23.3694 13.824 23.2974 13.524 23.2974 13.164C23.2974 12.816 23.3934 12.504 23.5854 12.228C23.7894 11.94 24.0174 11.706 24.2694 11.526V11.454C23.9694 11.226 23.6994 10.914 23.4594 10.518C23.2314 10.11 23.1174 9.64202 23.1174 9.11402C23.1174 8.61002 23.2134 8.16002 23.4054 7.76402C23.5974 7.36801 23.8494 7.03802 24.1614 6.77402C24.4854 6.49802 24.8574 6.29402 25.2774 6.16201C25.6974 6.01802 26.1414 5.94602 26.6094 5.94602C26.8494 5.94602 27.0774 5.97002 27.2934 6.01802C27.5214 6.05402 27.7254 6.10202 27.9054 6.16201H31.0734V7.69202H29.4534C29.5974 7.86002 29.7174 8.07602 29.8134 8.34002C29.9094 8.59202 29.9574 8.87402 29.9574 9.18602C29.9574 9.67802 29.8674 10.11 29.6874 10.482C29.5194 10.854 29.2854 11.166 28.9854 11.418C28.6854 11.67 28.3314 11.862 27.9234 11.994C27.5154 12.126 27.0774 12.192 26.6094 12.192C26.4174 12.192 26.2194 12.174 26.0154 12.138C25.8114 12.102 25.6074 12.042 25.4034 11.958C25.2714 12.078 25.1634 12.198 25.0794 12.318C25.0074 12.438 24.9714 12.6 24.9714 12.804C24.9714 13.056 25.0734 13.254 25.2774 13.398C25.4934 13.542 25.8714 13.614 26.4114 13.614H27.9774C29.0454 13.614 29.8494 13.788 30.3894 14.136C30.9414 14.472 31.2174 15.024 31.2174 15.792C31.2174 16.224 31.1034 16.632 30.8754 17.016C30.6594 17.4 30.3474 17.73 29.9394 18.006C29.5314 18.282 29.0334 18.498 28.4454 18.654C27.8694 18.822 27.2214 18.906 26.5014 18.906ZM26.6094 10.896C27.0294 10.896 27.3894 10.746 27.6894 10.446C27.9894 10.134 28.1394 9.69002 28.1394 9.11402C28.1394 8.56202 27.9894 8.13601 27.6894 7.83601C27.4014 7.52401 27.0414 7.36802 26.6094 7.36802C26.1774 7.36802 25.8114 7.51802 25.5114 7.81802C25.2114 8.11802 25.0614 8.55002 25.0614 9.11402C25.0614 9.69002 25.2114 10.134 25.5114 10.446C25.8114 10.746 26.1774 10.896 26.6094 10.896ZM26.8254 17.556C27.5454 17.556 28.1214 17.412 28.5534 17.124C28.9974 16.848 29.2194 16.518 29.2194 16.134C29.2194 15.786 29.0814 15.552 28.8054 15.432C28.5414 15.312 28.1574 15.252 27.6534 15.252H26.4474C25.9674 15.252 25.5654 15.21 25.2414 15.126C24.7854 15.474 24.5574 15.864 24.5574 16.296C24.5574 16.692 24.7554 16.998 25.1514 17.214C25.5594 17.442 26.1174 17.556 26.8254 17.556Z" fill="black"/>
<path d="M35.5897 15.216C34.4737 15.216 33.5857 14.814 32.9257 14.01C32.2777 13.194 31.9537 12.054 31.9537 10.59C31.9537 9.87002 32.0557 9.22202 32.2597 8.64602C32.4757 8.07002 32.7577 7.58401 33.1057 7.18801C33.4537 6.79202 33.8497 6.48602 34.2937 6.27002C34.7497 6.05402 35.2177 5.94602 35.6977 5.94602C36.2017 5.94602 36.6277 6.03602 36.9757 6.21601C37.3237 6.38401 37.6717 6.61801 38.0197 6.91802L37.9477 5.49602V2.29201H40.0177V15H38.3077L38.1637 14.046H38.0917C37.7677 14.37 37.3897 14.646 36.9577 14.874C36.5257 15.102 36.0697 15.216 35.5897 15.216ZM36.0937 13.506C36.7537 13.506 37.3717 13.176 37.9477 12.516V8.39402C37.6357 8.11802 37.3297 7.92602 37.0297 7.81802C36.7417 7.71002 36.4477 7.65601 36.1477 7.65601C35.5717 7.65601 35.0857 7.90802 34.6897 8.41201C34.2937 8.91602 34.0957 9.63602 34.0957 10.572C34.0957 11.532 34.2637 12.264 34.5997 12.768C34.9477 13.26 35.4457 13.506 36.0937 13.506Z" fill="black"/>
<path d="M41.9518 15V13.884L46.1278 7.80002H42.4198V6.16201H48.7198V7.26002L44.5618 13.344H48.8638V15H41.9518Z" fill="black"/>
<path d="M50.6343 15V6.16201H52.7043V15H50.6343ZM51.6783 4.61402C51.3063 4.61402 51.0003 4.50602 50.7603 4.29001C50.5203 4.07401 50.4003 3.79201 50.4003 3.44402C50.4003 3.09602 50.5203 2.81402 50.7603 2.59802C51.0003 2.37002 51.3063 2.25602 51.6783 2.25602C52.0503 2.25602 52.3563 2.37002 52.5963 2.59802C52.8363 2.81402 52.9563 3.09602 52.9563 3.44402C52.9563 3.79201 52.8363 4.07401 52.5963 4.29001C52.3563 4.50602 52.0503 4.61402 51.6783 4.61402Z" fill="black"/>
<path d="M59.1253 15.216C58.5133 15.216 57.9432 15.114 57.4152 14.91C56.8872 14.694 56.4253 14.388 56.0293 13.992C55.6333 13.596 55.3213 13.116 55.0933 12.552C54.8773 11.976 54.7692 11.322 54.7692 10.59C54.7692 9.87002 54.8833 9.22202 55.1113 8.64602C55.3393 8.07002 55.6392 7.58401 56.0112 7.18801C56.3952 6.79202 56.8332 6.48602 57.3252 6.27002C57.8172 6.05402 58.3212 5.94602 58.8372 5.94602C59.4372 5.94602 59.9652 6.04802 60.4212 6.25202C60.8772 6.45602 61.2553 6.74402 61.5553 7.11601C61.8673 7.48802 62.1013 7.93202 62.2573 8.44802C62.4133 8.96402 62.4912 9.52802 62.4912 10.14C62.4912 10.344 62.4792 10.536 62.4552 10.716C62.4432 10.896 62.4252 11.04 62.4012 11.148H56.7853C56.8813 11.94 57.1573 12.552 57.6133 12.984C58.0813 13.404 58.6752 13.614 59.3952 13.614C59.7792 13.614 60.1332 13.56 60.4572 13.452C60.7932 13.332 61.1233 13.17 61.4473 12.966L62.1493 14.262C61.7292 14.538 61.2613 14.766 60.7453 14.946C60.2293 15.126 59.6893 15.216 59.1253 15.216ZM56.7673 9.74401H60.6912C60.6912 9.06001 60.5412 8.52602 60.2412 8.14202C59.9532 7.74602 59.5033 7.54801 58.8913 7.54801C58.3633 7.54801 57.9012 7.73401 57.5052 8.10602C57.1092 8.47802 56.8633 9.02401 56.7673 9.74401Z" fill="black"/>
<path d="M69.5298 15L67.1898 6.16201H69.2778L70.3398 10.752C70.4358 11.172 70.5138 11.592 70.5738 12.012C70.6458 12.432 70.7238 12.858 70.8078 13.29H70.8798C70.9638 12.858 71.0478 12.432 71.1318 12.012C71.2278 11.592 71.3298 11.172 71.4378 10.752L72.5898 6.16201H74.4798L75.6498 10.752C75.7578 11.172 75.8598 11.592 75.9558 12.012C76.0518 12.432 76.1478 12.858 76.2438 13.29H76.3158C76.3998 12.858 76.4778 12.432 76.5498 12.012C76.6218 11.592 76.6998 11.172 76.7838 10.752L77.8458 6.16201H79.7898L77.5398 15H75.0738L74.0478 10.878C73.9518 10.458 73.8618 10.044 73.7778 9.63601C73.6938 9.21601 73.6038 8.77202 73.5078 8.30402H73.4358C73.3518 8.77202 73.2678 9.21601 73.1838 9.63601C73.0998 10.056 73.0098 10.476 72.9138 10.896L71.9058 15H69.5298Z" fill="black"/>
<path d="M82.1307 18.636C81.8907 18.636 81.6807 18.618 81.5007 18.582C81.3207 18.558 81.1467 18.516 80.9787 18.456L81.3567 16.836C81.4407 16.86 81.5367 16.884 81.6447 16.908C81.7647 16.944 81.8787 16.962 81.9867 16.962C82.4547 16.962 82.8267 16.818 83.1027 16.53C83.3907 16.254 83.6067 15.894 83.7507 15.45L83.9127 14.892L80.4387 6.16201H82.5447L84.0747 10.5C84.2067 10.884 84.3327 11.292 84.4527 11.724C84.5847 12.144 84.7167 12.564 84.8487 12.984H84.9207C85.0287 12.576 85.1367 12.162 85.2447 11.742C85.3647 11.31 85.4787 10.896 85.5867 10.5L86.9187 6.16201H88.9167L85.7127 15.396C85.5327 15.9 85.3347 16.35 85.1187 16.746C84.9027 17.142 84.6507 17.478 84.3627 17.754C84.0867 18.042 83.7627 18.258 83.3907 18.402C83.0307 18.558 82.6107 18.636 82.1307 18.636Z" fill="black"/>
<path d="M90.4488 15V6.16201H92.1588L92.3028 7.72802H92.3748C92.6868 7.15202 93.0648 6.71401 93.5088 6.41401C93.9528 6.10201 94.4088 5.94602 94.8768 5.94602C95.2968 5.94602 95.6328 6.00601 95.8848 6.12601L95.5248 7.92602C95.3688 7.87802 95.2248 7.84202 95.0928 7.81802C94.9608 7.79402 94.7988 7.78201 94.6068 7.78201C94.2588 7.78201 93.8928 7.92002 93.5088 8.19602C93.1248 8.46002 92.7948 8.92802 92.5188 9.60002V15H90.4488Z" fill="black"/>
<path d="M96.3561 15V13.884L100.532 7.80002H96.8241V6.16201H103.124V7.26002L98.9661 13.344H103.268V15H96.3561Z" fill="black"/>
<path d="M107.491 15.216C106.543 15.216 105.853 14.916 105.421 14.316C104.989 13.704 104.773 12.834 104.773 11.706V6.16201H106.843V11.436C106.843 12.168 106.951 12.684 107.167 12.984C107.383 13.284 107.731 13.434 108.211 13.434C108.595 13.434 108.931 13.338 109.219 13.146C109.519 12.954 109.837 12.642 110.173 12.21V6.16201H112.243V15H110.551L110.389 13.704H110.335C109.951 14.16 109.531 14.526 109.075 14.802C108.631 15.078 108.103 15.216 107.491 15.216Z" fill="black"/>
<path d="M118.555 15.216C117.955 15.216 117.391 15.114 116.863 14.91C116.347 14.706 115.897 14.406 115.513 14.01C115.129 13.614 114.829 13.128 114.613 12.552C114.397 11.976 114.289 11.322 114.289 10.59C114.289 9.85802 114.409 9.20402 114.649 8.62802C114.889 8.05202 115.213 7.56602 115.621 7.17001C116.029 6.77401 116.497 6.47402 117.025 6.27002C117.565 6.05402 118.129 5.94602 118.717 5.94602C119.293 5.94602 119.785 6.04201 120.193 6.23401C120.613 6.42602 120.985 6.66002 121.309 6.93602L120.301 8.28602C120.061 8.08202 119.821 7.92602 119.581 7.81802C119.353 7.69802 119.101 7.63802 118.825 7.63802C118.105 7.63802 117.523 7.90802 117.079 8.44802C116.635 8.97602 116.413 9.69002 116.413 10.59C116.413 11.478 116.629 12.192 117.061 12.732C117.505 13.26 118.075 13.524 118.771 13.524C119.119 13.524 119.443 13.452 119.743 13.308C120.055 13.152 120.337 12.972 120.589 12.768L121.435 14.136C121.015 14.496 120.553 14.766 120.049 14.946C119.557 15.126 119.059 15.216 118.555 15.216Z" fill="black"/>
<path d="M123.179 15V6.16201H125.249V15H123.179ZM124.223 4.61402C123.851 4.61402 123.545 4.50602 123.305 4.29001C123.065 4.07401 122.945 3.79201 122.945 3.44402C122.945 3.09602 123.065 2.81402 123.305 2.59802C123.545 2.37002 123.851 2.25602 124.223 2.25602C124.595 2.25602 124.901 2.37002 125.141 2.59802C125.381 2.81402 125.501 3.09602 125.501 3.44402C125.501 3.79201 125.381 4.07401 125.141 4.29001C124.901 4.50602 124.595 4.61402 124.223 4.61402Z" fill="black"/>
<path d="M131.58 15.216C130.98 15.216 130.416 15.114 129.888 14.91C129.372 14.706 128.922 14.406 128.538 14.01C128.154 13.614 127.854 13.128 127.638 12.552C127.422 11.976 127.314 11.322 127.314 10.59C127.314 9.85802 127.434 9.20402 127.674 8.62802C127.914 8.05202 128.238 7.56602 128.646 7.17001C129.054 6.77401 129.522 6.47402 130.05 6.27002C130.59 6.05402 131.154 5.94602 131.742 5.94602C132.318 5.94602 132.81 6.04201 133.218 6.23401C133.638 6.42602 134.01 6.66002 134.334 6.93602L133.326 8.28602C133.086 8.08202 132.846 7.92602 132.606 7.81802C132.378 7.69802 132.126 7.63802 131.85 7.63802C131.13 7.63802 130.548 7.90802 130.104 8.44802C129.66 8.97602 129.438 9.69002 129.438 10.59C129.438 11.478 129.654 12.192 130.086 12.732C130.53 13.26 131.1 13.524 131.796 13.524C132.144 13.524 132.468 13.452 132.768 13.308C133.08 13.152 133.362 12.972 133.614 12.768L134.46 14.136C134.04 14.496 133.578 14.766 133.074 14.946C132.582 15.126 132.084 15.216 131.58 15.216ZM131.67 4.68602L130.644 3.66001L133.29 0.528015L134.73 1.89601L131.67 4.68602Z" fill="black"/>
</svg>
